<?xml version="1.0" standalone="no"?><!DOCTYPE svg PUBLIC "-//W3C//DTD SVG 1.1//EN" "http://www.w3.org/Graphics/SVG/1.1/DTD/svg11.dtd"><svg t="1607497334998" class="icon" viewBox="0 0 1024 1024" version="1.1" xmlns="http://www.w3.org/2000/svg" p-id="4622" xmlns:xlink="http://www.w3.org/1999/xlink" width="32" height="32"><defs><style type="text/css"></style></defs><path d="M853.384533 460.8c-1.962667-148.462933-122.760533-273.066667-271.684266-273.066667-94.8736 0-183.9616 51.285333-233.147734 125.201067A136.533333 136.533333 0 0 0 136.533333 426.666667c0 2.6112 0.238933 5.154133 0.392534 7.748266-0.170667 3.106133-0.392533 6.2464-0.392534 9.3184-68.061867 32.631467-119.466667 110.199467-119.466666 190.378667C17.066667 745.301333 108.032 836.266667 219.221333 836.266667h418.2528c2.3552 0 4.642133-0.273067 6.9632-0.3584 2.338133 0.085333 4.625067 0.3584 6.980267 0.3584h167.304533C922.231467 836.266667 1006.933333 751.5648 1006.933333 648.055467c0-91.665067-66.4576-170.8544-153.5488-187.255467zM853.384533 460.8s-43.264-6.4-85.384533 0M136.533333 426.666667a136.533333 136.533333 0 0 1 273.066667 0" fill="#1661d3" p-id="4623"></path></svg>