<?xml version="1.0" standalone="no"?><!DOCTYPE svg PUBLIC "-//W3C//DTD SVG 1.1//EN" "http://www.w3.org/Graphics/SVG/1.1/DTD/svg11.dtd"><svg t="1610158018068" class="icon" viewBox="0 0 1024 1024" version="1.1" xmlns="http://www.w3.org/2000/svg" p-id="9738" data-spm-anchor-id="a313x.7781069.0.i6" xmlns:xlink="http://www.w3.org/1999/xlink" width="48" height="48"><defs><style type="text/css"></style></defs><path d="M313.156267 442.9824c21.76-124.808533 130.8672-219.972267 261.802666-219.972267 12.407467 0 24.541867 1.109333 36.488534 2.7648-32.750933-63.1296-98.56-106.3424-174.592-106.3424-108.629333 0-196.693333 88.064-196.693334 196.693334 0 9.745067 1.501867 19.080533 2.8672 28.450133-14.933333-3.618133-30.293333-6.075733-46.336-6.075733C88.064 338.5344 0 426.5984 0 535.227733c0 60.398933 27.272533 114.3808 70.126933 150.459734 10.717867-129.058133 113.92-232.260267 243.029334-242.705067z" fill="#d81e06" p-id="9739" data-spm-anchor-id="a313x.7781069.0.i7" class="selected"></path><path d="M827.306667 511.163733c-20.667733 0-40.192 4.061867-58.914134 9.984 1.757867-10.581333 3.259733-21.282133 3.259734-32.3584 0-108.629333-88.064-196.693333-196.693334-196.693333s-196.693333 88.064-196.693333 196.693333c0 9.745067 1.501867 19.080533 2.8672 28.450134-14.933333-3.618133-30.293333-6.075733-46.336-6.075734-108.629333 0-196.693333 88.064-196.693333 196.693334s88.064 196.693333 196.693333 196.693333h492.509867C935.936 904.5504 1024 816.4864 1024 707.857067c0-108.6464-88.064-196.693333-196.693333-196.693334z" fill="#d81e06" p-id="9740" data-spm-anchor-id="a313x.7781069.0.i8" class="selected"></path></svg>